<svg id="Vrstva_1" data-name="Vrstva 1" xmlns="http://www.w3.org/2000/svg" viewBox="0 0 465.62 181.72"><defs><style>.cls-1{fill:#800;}.cls-2{fill:#fff;}</style></defs><title>mongoose</title><path class="cls-1" d="M275.39,250.08c-6.5-3.22-12.93-5.84-18.78-9.39-19.59-11.9-33-28.75-39.12-51a49,49,0,0,1-1.27-12.7c0-5.85,2.39-8.35,8.13-9.69,5.94-1.38,11.81-.43,17.67.51a165.91,165.91,0,0,1,37.38,11,8.11,8.11,0,0,0,2.76.68c-6.11-5.33-14.06-7.3-20.87-12,3.27-.57,6.52-1.31,9.81-1.67,13.61-1.49,27.17-.41,40.73.93,29.12,2.89,57.64,8.9,85.9,16.2,25.44,6.57,50.5,14.33,74.58,25,2,.89,2.53,1.84,1.87,4-1.09,3.58-1.76,7.29-2.61,10.94l1,.31c.91-2.42,1.8-4.85,2.76-7.26,2.34-5.92,4.48-6.6,9.94-3.22,3,1.83,4.39,4.15,3.08,7.38-3,7.45-6,15-10.06,21.89-3.38,5.77-10,7.54-16.21,8.91-18.32,4-36.72,7.64-55.05,11.61-13.77,3-27.47,6.25-41.19,9.43a16.77,16.77,0,0,0-3.29,1.18c-3.54,1.69-4.71,4.53-3.25,8.19,1.17,2.95,2.55,5.81,4.26,9.67-4.58,0-8.52-.11-12.45,0-9.91.33-19.84.44-29.71,1.27-10.32.87-20.12,3.9-28.29,10.57-3.18,2.6-5.53,6.19-8.41,9.18-2.08,2.16-4.41,4.06-6.63,6.08l-1-.62v-3.35c0-19.16-.06-38.33.06-57.49,0-2.82-.77-3.61-3.57-3.57q-16.63.24-33.27,0a4.8,4.8,0,0,0-5,3c-4.85,9.2-9.88,18.3-14.86,27.43-.5.91-1.07,1.78-1.94,3.23-1.84-3.35-3.41-6.21-5-9.07-4-7.43-8-14.9-12.16-22.27a4.4,4.4,0,0,0-2.93-2.16c-11.77-.15-23.54-.09-35.31-.07a10.68,10.68,0,0,0-1.78.33V286L160,287a14.24,14.24,0,0,0-1.45-2.8c-3.2-3.77-6.25-7.71-9.8-11.13-12.38-11.92-27.25-19-44.08-22.33-24.94-5-49.31-2.6-73.43,4.66-2.39.72-4.9,1.06-8.09,1.73a15,15,0,0,1,1.48-2c33.52-29.27,70.54-52.68,112.88-67,22.56-7.66,45.77-11.57,69.69-10.42,2.14.11,3.84.1,4,3.16,1.18,19.14,9.82,34.76,23.38,47.82,11,10.61,23.83,18,39,21.12C274.08,249.89,274.55,249.94,275.39,250.08Zm-2.28-43.7.41-.6c-.65-.7-1.26-1.44-1.94-2.1-10.92-10.56-24.29-16.61-38.6-20.88-3.06-.91-4.64.16-4.28,3.36a27.23,27.23,0,0,0,2.38,8.91c8.17,16.5,21.38,28.18,36.78,37.67.25.15.65.06,1.34.11l-9.41-12.69.59-.68,6.06,1.69.29-.61L256.08,207.9l.67-.89,12.34,5.64c-2.38-3.67-4.43-6.82-6.47-10l.6-.66Zm62-11.34c-.09.37-.18.73-.26,1.1,2.43.75,4.9,1.4,7.26,2.31,1.39.53,3.12,1.17,3.83,2.3,3.31,5.32,8.23,7.73,14.13,8.8,10.66,1.93,21.32.88,31.95-.12,2-.19,3.82-1.56,5.72-2.39,0-.31-.08-.63-.11-.94C376.94,201.56,356.46,195.82,335.12,195Zm12,87.15c-.23-2.37-.45-4.73-.7-7.09-.64-5.82,1.23-9,6.32-11.88,10-5.66,20.71-9.28,31.65-12.43,2.65-.77,5.27-1.61,7.9-2.42l-.17-.71a22.78,22.78,0,0,0-3.62.39c-8.89,2.4-17.93,4.42-26.6,7.47-5.87,2.07-11.29,5.48-16.73,8.61-1.43.82-3,2.78-3.09,4.3C341.75,273.55,343.71,278.13,347.1,282.19Z" transform="translate(-23.19 -165.14)"/><path class="cls-1" d="M237.69,295.36c.13,1.67.25,2.49.25,3.31q0,22.17,0,44.33c0,3.66-.16,3.82-3.77,3.82-10.31,0-20.61,0-30.91,0-1.93,0-2.79-.44-2.78-2.57.07-15.46,0-30.91,0-46.37a22.79,22.79,0,0,1,.36-2.39l18.24,28.23C225.37,314.21,231.31,305.13,237.69,295.36Z" transform="translate(-23.19 -165.14)"/><path class="cls-2" d="M273.11,206.38,263.22,202l-.6.66c2,3.16,4.09,6.31,6.47,10L256.75,207l-.67.89,10.65,12.66-.29.61-6.06-1.69-.59.68,9.41,12.69c-.69,0-1.09,0-1.34-.11-15.4-9.49-28.61-21.17-36.78-37.67a27.23,27.23,0,0,1-2.38-8.91c-.36-3.2,1.22-4.27,4.28-3.36,14.31,4.27,27.68,10.32,38.6,20.88.68.66,1.29,1.4,1.94,2.1Z" transform="translate(-23.19 -165.14)"/><path class="cls-2" d="M335.12,195c21.34.78,41.82,6.52,62.52,11.06,0,.31.07.63.11.94-1.9.83-3.76,2.2-5.72,2.39-10.63,1-21.29,2-31.95.12-5.9-1.07-10.82-3.48-14.13-8.8-.71-1.13-2.44-1.77-3.83-2.3-2.36-.91-4.83-1.56-7.26-2.31C334.94,195.77,335,195.41,335.12,195Z" transform="translate(-23.19 -165.14)"/><path class="cls-2" d="M347.1,282.19c-3.39-4.06-5.35-8.64-5-13.76.09-1.52,1.66-3.48,3.09-4.3,5.44-3.13,10.86-6.54,16.73-8.61,8.67-3.05,17.71-5.07,26.6-7.47a22.78,22.78,0,0,1,3.62-.39l.17.71c-2.63.81-5.25,1.65-7.9,2.42-10.94,3.15-21.68,6.77-31.65,12.43-5.09,2.88-7,6.06-6.32,11.88C346.65,277.46,346.87,279.82,347.1,282.19Z" transform="translate(-23.19 -165.14)"/></svg>